# xmcd
#
# Track frame offsets:
# 150
# 49455
# 61475
# 81359
# 98948
# 117720
# 130739
# 140319
# 150210
# 165837
# 184945
# 200269
# 219543
# 232303
# 247478
# 264702
# 284099
# 294277
#
# Disc length: 4101 seconds
#
#
# Revision: 3
# Processed by: cddbd v1.5.2PL0 Copyright (c) Steve Scherf et al.
# Submitted via: FreeRIP 2.951 
#
DISCID=1d100312
DTITLE=Rolando Boldrin - Declamações
DYEAR=2004
DGENRE=Caipira
TTITLE0=Resposta do Jeca Tatú
TTITLE1=Lenço Preto
TTITLE2=Crônica do Natal Caipira
TTITLE3=Minha Viola
TTITLE4=A Capelinha do Arraiá
TTITLE5=Porteira Abandonada
TTITLE6=Flor do Maracujá
TTITLE7=Frô do Maracujá
TTITLE8=O Pedido do Caipirinha
TTITLE9=O Último Presente
TTITLE10=A Vida do Homem
TTITLE11=Esmola pra São José
TTITLE12=Brinquedo de Escondê
TTITLE13=Chico Beleza
TTITLE14=As Três Lágrimas
TTITLE15=A Cascavé
TTITLE16=Final de Ato
TTITLE17=Pitoco
EXTD=YEAR: 2004
EXTT0=
EXTT1=
EXTT2=
EXTT3=
EXTT4=
EXTT5=
EXTT6=
EXTT7=
EXTT8=
EXTT9=
EXTT10=
EXTT11=
EXTT12=
EXTT13=
EXTT14=
EXTT15=
EXTT16=
EXTT17=
PLAYORDER=
